<!DOCTYPE svg PUBLIC "-//W3C//DTD SVG 1.1//EN" "http://www.w3.org/Graphics/SVG/1.1/DTD/svg11.dtd">
<!-- Uploaded to: SVG Repo, www.svgrepo.com, Transformed by: SVG Repo Mixer Tools -->
<svg width="64px" height="64px" viewBox="0 0 100 100" xmlns="http://www.w3.org/2000/svg" xmlns:xlink="http://www.w3.org/1999/xlink" aria-hidden="true" role="img" class="iconify iconify--gis" preserveAspectRatio="xMidYMid meet" fill="#000000">
<g id="SVGRepo_bgCarrier" stroke-width="0"/>
<g id="SVGRepo_tracerCarrier" stroke-linecap="round" stroke-linejoin="round"/>
<g id="SVGRepo_iconCarrier">
<path d="M13.996 0a2.5 2.5 0 0 0-2.5 2.5V70H0v22h11.496v5.5a2.5 2.5 0 0 0 2.5 2.5h72a2.5 2.5 0 0 0 2.5-2.5V21.625c.027-1.113.004-1.777-.732-2.59L69.46.732A2.5 2.5 0 0 0 67.662 0H13.996zm2.5 5h48.902l1.252 14.568a2.5 2.5 0 0 0 2.278 2.278l14.568 1.252V95h-67v-3H80V70H16.496V5zM10 73h4.205v6.66L22.7 73h5.653l-7.84 5.842L28.779 88h-5.441l-5.725-7.04l-3.408 2.507V88H10V73zm20.908 0h6.293l3.78 10.232L44.716 73h6.306v15h-3.906V76.191L42.982 88h-4.046l-4.122-11.809V88h-3.906V73zm24.434.123h4.203v12.35H70V88H55.342V73.123z" fill="#000000"/>
<path d="M70.771 9.115l8.61 8.61l-7.928-.682z" fill="#000000"/>
<path fill="#000000" d="M50 17.507a22.5 22.5 0 0 0-22.5 22.5a22.5 22.5 0 0 0 22.5 22.5a22.5 22.5 0 0 0 22.5-22.5a22.5 22.5 0 0 0-22.5-22.5m-.456 1.592c9.864 0 18.18 6.6 20.782 15.629c-.481.925-1.094 1.53-1.873 1.597c-2.678 0-6.28-6.921-8.356-9.245c-3.11-3.479-7.386-6.76-14.932-6.76c-1.322 0-2.424.075-3.344.202a21.594 21.594 0 0 1 7.723-1.423m-9.365 5.18c5.62 0 9.717 4.286 14.118 8.553c2.807 2.73 10.612 9.973 16.82 11.334a21.351 21.351 0 0 1-.791 3.35c-13.669-1.575-26.522-17.058-33.829-17.058c-2.72 0-5.299 2.177-7.551 4.43a21.632 21.632 0 0 1 6.035-9.818c1.525-.456 3.28-.79 5.198-.79m-7.032 22.24c3.37 0 12.845 6.767 25.397 6.767c3.623 0 7.102-.95 9.493-1.802a21.31 21.31 0 0 1-3.5 4.016c-2.5.782-5.903 1.55-9.595 1.55c-8.09 0-10.272-1.885-12.465-1.885c-2.481 0-2.09 2.208-1.44 3.879A21.69 21.69 0 0 1 30.52 48.613c.458-1.13 1.251-2.093 2.632-2.093"/>
</g>
</svg>